<svg id="Layer_1" data-name="Layer 1" xmlns="http://www.w3.org/2000/svg" viewBox="0 0 510.52 84.46"><defs><style>.cls-1{fill:#a7a9ac;}.cls-2{fill:#6d6e71;}.cls-3{fill:#414042;}</style></defs><title>beautiful-homes-in-the-north-logo</title><path class="cls-1" d="M6.73,12.89H25.08a25.87,25.87,0,0,1,6.67.82A17.36,17.36,0,0,1,37,16a11,11,0,0,1,3.39,3.53,8.9,8.9,0,0,1,1.21,4.55,12.64,12.64,0,0,1-.4,3.34,7.9,7.9,0,0,1-1.34,2.73,11.14,11.14,0,0,1-2.55,2.39,27.55,27.55,0,0,1-4,2.27v.13a16.5,16.5,0,0,1,4.4,1.33A11.35,11.35,0,0,1,41,38.64,10.29,10.29,0,0,1,43.17,42a11.14,11.14,0,0,1,.75,4.17A10.57,10.57,0,0,1,42.79,51a11.69,11.69,0,0,1-3.2,3.93,15.81,15.81,0,0,1-5,2.62,21.52,21.52,0,0,1-6.58.94H6.73ZM14.38,33.4h9.75a11.82,11.82,0,0,0,4.09-.65,8.76,8.76,0,0,0,3-1.81,7.93,7.93,0,0,0,1.86-2.74,8.91,8.91,0,0,0,.64-3.43A8.6,8.6,0,0,0,33,21.14a7.16,7.16,0,0,0-2.36-2.8,11.79,11.79,0,0,0-4.06-1.78,24,24,0,0,0-5.89-.62H14.38Zm0,21.73h8.28a23.49,23.49,0,0,0,5.79-.64,12.32,12.32,0,0,0,4.05-1.78,7.29,7.29,0,0,0,2.38-2.77,8.2,8.2,0,0,0,.77-3.55,11.47,11.47,0,0,0-.69-4,7.73,7.73,0,0,0-2.26-3.22A11.38,11.38,0,0,0,28.61,37a21.14,21.14,0,0,0-6.18-.78h-8Z" transform="translate(-6.73 -4.83)"/><path class="cls-1" d="M63.88,59.22a16.83,16.83,0,0,1-6.69-1.34,17.55,17.55,0,0,1-5.46-3.65,17.19,17.19,0,0,1-3.7-5.4,16.21,16.21,0,0,1-1.36-6.62,24,24,0,0,1,1.24-7.82,18.81,18.81,0,0,1,3.51-6.22,15.94,15.94,0,0,1,5.44-4.09,16.74,16.74,0,0,1,7.08-1.47,16.15,16.15,0,0,1,6.35,1.21,15.44,15.44,0,0,1,4.94,3.25,14.85,14.85,0,0,1,3.21,4.73,14.27,14.27,0,0,1,1.14,5.63H53.38A22.61,22.61,0,0,0,54.29,44a16.52,16.52,0,0,0,2.56,5.22,12,12,0,0,0,3.92,3.43,10.33,10.33,0,0,0,5,1.24,13.16,13.16,0,0,0,4.38-.73A15.79,15.79,0,0,0,74,51.22a13.29,13.29,0,0,0,2.89-2.75,10,10,0,0,0,1.69-3.19l2,.88a16,16,0,0,1-2.44,5.09,20,20,0,0,1-3.92,4.14,19,19,0,0,1-4.91,2.8A15,15,0,0,1,63.88,59.22Zm7-24.6a9.74,9.74,0,0,0-.71-3.72,9.24,9.24,0,0,0-1.93-3,8.91,8.91,0,0,0-6.42-2.7,6.75,6.75,0,0,0-3,.72,8.74,8.74,0,0,0-2.59,2,10.5,10.5,0,0,0-1.86,3,11.81,11.81,0,0,0-.9,3.71Z" transform="translate(-6.73 -4.83)"/><path class="cls-1" d="M110.27,58.46h-7v-4.8c-.83.63-1.64,1.27-2.44,1.93a19.34,19.34,0,0,1-2.58,1.79,13.83,13.83,0,0,1-3.08,1.33,13.48,13.48,0,0,1-3.91.51,10.11,10.11,0,0,1-3.73-.67,8.47,8.47,0,0,1-2.84-1.85,7.85,7.85,0,0,1-1.8-2.78,9.42,9.42,0,0,1-.62-3.47,9,9,0,0,1,.9-4.07,11.14,11.14,0,0,1,2.45-3.26,17.53,17.53,0,0,1,3.63-2.55,38.43,38.43,0,0,1,4.4-2Q96,37.68,98.45,37c1.64-.45,3.25-.88,4.82-1.27V33.54a15,15,0,0,0-.47-4,6.92,6.92,0,0,0-1.36-2.67,5.06,5.06,0,0,0-2.14-1.46,8.66,8.66,0,0,0-2.83-.44,7.55,7.55,0,0,0-2.88.46,4.51,4.51,0,0,0-1.75,1.21A4,4,0,0,0,91,28.32a8.5,8.5,0,0,0-.23,1.94A10.14,10.14,0,0,1,90.59,32a3.9,3.9,0,0,1-.54,1.49,3,3,0,0,1-1.06,1,3.39,3.39,0,0,1-1.72.39,3.42,3.42,0,0,1-2.65-1.18,3.89,3.89,0,0,1-.75-1.3,5.12,5.12,0,0,1-.26-1.64,5.25,5.25,0,0,1,1.14-3.24A10.08,10.08,0,0,1,87.83,25a17.59,17.59,0,0,1,4.51-1.73,22.43,22.43,0,0,1,5.43-.64,21.82,21.82,0,0,1,5.86.67,10.46,10.46,0,0,1,3.86,1.88,7,7,0,0,1,2.13,2.94,11,11,0,0,1,.65,3.83Zm-7-20.48c-1,.33-2,.7-3.12,1.12S98,40,97,40.49a31.42,31.42,0,0,0-3,1.67,16,16,0,0,0-2.47,1.91,8.77,8.77,0,0,0-1.68,2.16,4.87,4.87,0,0,0-.62,2.39,6.26,6.26,0,0,0,.47,2.43,6.83,6.83,0,0,0,1.26,2,6,6,0,0,0,1.82,1.38,4.73,4.73,0,0,0,2.14.5,7.87,7.87,0,0,0,2.24-.31,10.7,10.7,0,0,0,2.06-.83,18,18,0,0,0,2-1.23c.66-.47,1.34-1,2-1.49Z" transform="translate(-6.73 -4.83)"/><path class="cls-1" d="M121.2,23.33v25a5.16,5.16,0,0,0,.61,2.47,6.14,6.14,0,0,0,1.65,2,8.42,8.42,0,0,0,2.45,1.36,8.81,8.81,0,0,0,3,.51,6.48,6.48,0,0,0,2.23-.44A11.25,11.25,0,0,0,133.46,53a14.41,14.41,0,0,0,2.12-1.81A10.34,10.34,0,0,0,137.23,49V23.33h7V58.46h-7V51.89a14.41,14.41,0,0,1-2.3,2.84,17.26,17.26,0,0,1-3,2.34,15.59,15.59,0,0,1-3.34,1.57,10.06,10.06,0,0,1-3.25.58,10.83,10.83,0,0,1-4.32-.87A11.49,11.49,0,0,1,117.47,56a10.94,10.94,0,0,1-2.37-3.45,10.4,10.4,0,0,1-.86-4.24v-25Z" transform="translate(-6.73 -4.83)"/><path class="cls-1" d="M169.75,54A10.54,10.54,0,0,1,166,57.81a10.8,10.8,0,0,1-5.72,1.41,7.36,7.36,0,0,1-3.06-.59A5.61,5.61,0,0,1,155.1,57a7.07,7.07,0,0,1-1.26-2.58,12.48,12.48,0,0,1-.41-3.34V26.27h-6.09V24.54a9.84,9.84,0,0,0,4.85-1.06,8.91,8.91,0,0,0,3.1-2.88,14.91,14.91,0,0,0,1.9-4.21q.69-2.38,1.21-5.07h2v12h7.88v2.94H160.4V51a3.82,3.82,0,0,0,.29,1.47,3.67,3.67,0,0,0,.8,1.19,3.78,3.78,0,0,0,1.21.81,4,4,0,0,0,1.49.29,4.1,4.1,0,0,0,2.14-.57A6.46,6.46,0,0,0,168,52.8Z" transform="translate(-6.73 -4.83)"/><path class="cls-1" d="M176.36,5.34a4.49,4.49,0,0,1,1.56.27,4.13,4.13,0,0,1,1.27.76,3.63,3.63,0,0,1,.87,1.11,2.91,2.91,0,0,1,.33,1.36,2.87,2.87,0,0,1-.33,1.35,3.8,3.8,0,0,1-.87,1.12,4.31,4.31,0,0,1-1.27.75,4.49,4.49,0,0,1-1.56.28,4.33,4.33,0,0,1-1.53-.28,4.39,4.39,0,0,1-1.26-.75,3.8,3.8,0,0,1-.87-1.12,2.87,2.87,0,0,1-.33-1.35,2.91,2.91,0,0,1,.33-1.36,3.63,3.63,0,0,1,.87-1.11,4.2,4.2,0,0,1,1.26-.76A4.32,4.32,0,0,1,176.36,5.34ZM173,24.6l4.91-2h2V58.46H173Z" transform="translate(-6.73 -4.83)"/><path class="cls-1" d="M206.37,23.33v2.94H197V58.46h-7V26.27h-7.37V23.33H190V19.21a14.21,14.21,0,0,1,1-5.42,13.92,13.92,0,0,1,2.79-4.41,12.8,12.8,0,0,1,4.16-3,12.22,12.22,0,0,1,5.1-1.08,16.26,16.26,0,0,1,4.14.47,10.52,10.52,0,0,1,3.06,1.28A5.81,5.81,0,0,1,212.16,9a4.54,4.54,0,0,1,.65,2.34,3.2,3.2,0,0,1-.29,1.39,3.12,3.12,0,0,1-.79,1,3.41,3.41,0,0,1-1.14.66,4.25,4.25,0,0,1-1.38.23,3.34,3.34,0,0,1-2-.49,3.38,3.38,0,0,1-1-1.25,8.15,8.15,0,0,1-.57-1.62,7.48,7.48,0,0,0-.6-1.62,3.44,3.44,0,0,0-1.13-1.24,3.79,3.79,0,0,0-2.11-.49,3.45,3.45,0,0,0-1.95.6,5.7,5.7,0,0,0-1.54,1.59,8.45,8.45,0,0,0-1,2.26A9.58,9.58,0,0,0,197,15v8.34Z" transform="translate(-6.73 -4.83)"/><path class="cls-1" d="M217.72,23.33v25a5.27,5.27,0,0,0,.6,2.47,6.3,6.3,0,0,0,1.66,2,8.17,8.17,0,0,0,2.45,1.36,8.77,8.77,0,0,0,3,.51,6.39,6.39,0,0,0,2.22-.44A10.75,10.75,0,0,0,230,53a15,15,0,0,0,2.13-1.81A11.06,11.06,0,0,0,233.75,49V23.33h7V58.46h-7V51.89a14.11,14.11,0,0,1-2.31,2.84,16.9,16.9,0,0,1-3,2.34,15.74,15.74,0,0,1-3.33,1.57,10.12,10.12,0,0,1-3.26.58,10.83,10.83,0,0,1-4.32-.87A11.45,11.45,0,0,1,214,56a10.78,10.78,0,0,1-2.37-3.45,10.41,10.41,0,0,1-.87-4.24v-25Z" transform="translate(-6.73 -4.83)"/><path class="cls-1" d="M253.51,58.46h-7V7.33l5-2h2Z" transform="translate(-6.73 -4.83)"/><path class="cls-2" d="M271,33.07V58H262.3V6H271V29.71h26.11V6h8.73V58h-8.73V33.07Z" transform="translate(-6.73 -4.83)"/><path class="cls-2" d="M339.22,59.22a29.57,29.57,0,0,1-14.58-3.77,28.4,28.4,0,0,1-5.79-4.31,26.6,26.6,0,0,1-4.43-5.58A27.24,27.24,0,0,1,311.58,39a26.45,26.45,0,0,1-1-7.31,25.41,25.41,0,0,1,1-7.17,26.53,26.53,0,0,1,2.84-6.41,25.77,25.77,0,0,1,4.43-5.43,28.83,28.83,0,0,1,12.65-6.9,31.84,31.84,0,0,1,15.44,0,29.34,29.34,0,0,1,6.87,2.7,29,29,0,0,1,5.78,4.2A26.13,26.13,0,0,1,364,18.11a26.5,26.5,0,0,1,2.83,6.41,25.05,25.05,0,0,1,1,7.17,26.09,26.09,0,0,1-1,7.29,27,27,0,0,1-7.27,12.16,28.34,28.34,0,0,1-5.78,4.31,29.65,29.65,0,0,1-14.59,3.77Zm0-2.61a16.23,16.23,0,0,0,7.87-1.87,16.8,16.8,0,0,0,5.77-5.18,24.81,24.81,0,0,0,3.54-7.89,38.83,38.83,0,0,0,1.21-10,37.13,37.13,0,0,0-1.21-9.79,23.59,23.59,0,0,0-3.54-7.69,16.53,16.53,0,0,0-5.77-5,16.78,16.78,0,0,0-7.87-1.79,17.18,17.18,0,0,0-8,1.79,16.24,16.24,0,0,0-5.76,5A23.13,23.13,0,0,0,322,21.9a38.46,38.46,0,0,0-1.18,9.79,40.23,40.23,0,0,0,1.18,10,24.32,24.32,0,0,0,3.49,7.89,16,16,0,0,0,13.76,7Z" transform="translate(-6.73 -4.83)"/><path class="cls-2" d="M374.11,6H383L403.24,45.9h.41L423.5,6h8.76V58H423.5V15.42h-.3L401.9,58h-1.79L378.54,15.72H378V58h-3.84Z" transform="translate(-6.73 -4.83)"/><path class="cls-2" d="M478.37,6V9.38H451V28h18.32v3.35H451V54.63h27.38V58H442.26V6Z" transform="translate(-6.73 -4.83)"/><path class="cls-2" d="M499.23,55.9a14.2,14.2,0,0,0,3.82-.53,10.58,10.58,0,0,0,3.36-1.56,8.38,8.38,0,0,0,2.37-2.56,6.76,6.76,0,0,0,.89-3.49,7.45,7.45,0,0,0-1.23-4.23,14.76,14.76,0,0,0-3.23-3.41,29.94,29.94,0,0,0-4.57-2.93q-2.56-1.36-5.24-2.74c-1.78-.92-3.52-1.89-5.24-2.89a26.72,26.72,0,0,1-4.57-3.36,15.74,15.74,0,0,1-3.22-4.14,11,11,0,0,1-1.24-5.28,13.75,13.75,0,0,1,1.12-5.54,12.26,12.26,0,0,1,3.29-4.42,15.78,15.78,0,0,1,5.31-2.93,22.65,22.65,0,0,1,7.26-1.06q7.38,0,11.66,3.09a17.29,17.29,0,0,1,6.17,9l-4.48,2.05a21,21,0,0,0-2-4.37,14,14,0,0,0-2.91-3.39A12.39,12.39,0,0,0,502.66,9a15.06,15.06,0,0,0-5-.77,12.29,12.29,0,0,0-4.31.69,9.47,9.47,0,0,0-3.06,1.79,7.43,7.43,0,0,0-1.83,2.5,7.07,7.07,0,0,0-.61,2.86,6.16,6.16,0,0,0,1.26,3.75A16.47,16.47,0,0,0,492.47,23,35.65,35.65,0,0,0,497.18,26l5.39,2.85q2.73,1.46,5.39,3a28.3,28.3,0,0,1,4.7,3.43A17,17,0,0,1,516,39.35a9.85,9.85,0,0,1,1.26,4.95,14.49,14.49,0,0,1-1.17,5.8,13,13,0,0,1-3.53,4.73A17,17,0,0,1,506.71,58a28.07,28.07,0,0,1-14.79.36A17.29,17.29,0,0,1,486.71,56a15.82,15.82,0,0,1-3.86-3.84A22.12,22.12,0,0,1,480.2,47l4.7-1.94a17.62,17.62,0,0,0,2.2,4.55A14.6,14.6,0,0,0,490.33,53a13.68,13.68,0,0,0,4.1,2.13A15.75,15.75,0,0,0,499.23,55.9Z" transform="translate(-6.73 -4.83)"/><path class="cls-3" d="M264.7,67.77v21.3h-2.4V67.77Z" transform="translate(-6.73 -4.83)"/><path class="cls-3" d="M292.44,67.77v21.3h-3.95l-8.93-14.5-1.45-2.39L277.39,71l-.72-1.19h-.06l0,.8V89.07h-2.4V67.77h3.93L286,80.47l2,3.34,1,1.66,1,1.67h.06v-.8l0-.81V67.77Z" transform="translate(-6.73 -4.83)"/><path class="cls-3" d="M322.78,70V89.07h-2.4V70h-6.95V67.77h16.23V70Z" transform="translate(-6.73 -4.83)"/><path class="cls-3" d="M354.5,67.77v21.3h-2.4V79.19H339.64v9.88h-2.4V67.77h2.4v9.39H352.1V67.77Z" transform="translate(-6.73 -4.83)"/><path class="cls-3" d="M365.52,69.8v7.25h10.82v2H365.52v8H376.8v2H363.12V67.77H376.8v2Z" transform="translate(-6.73 -4.83)"/><path class="cls-3" d="M417,67.77v21.3H413l-8.92-14.5-1.46-2.39L401.91,71l-.72-1.19h-.06v.8l0,.81V89.07h-2.41V67.77h3.94l7.79,12.7,2,3.34,1,1.66,1,1.67h.06l0-.8V67.77Z" transform="translate(-6.73 -4.83)"/><path class="cls-3" d="M434.23,67.55q6,0,7.56,1.76t1.51,8.82q0,7.61-1.45,9.38t-7.62,1.78c-4.09,0-6.62-.59-7.61-1.76s-1.47-4.22-1.47-9.12v-1.5l0-2q0-4.25,1.91-5.8T434.23,67.55Zm0,2c-3.37,0-5.35.37-5.92,1.12s-.86,3.32-.86,7.71.29,7,.86,7.73,2.55,1.12,5.92,1.12,5.36-.37,5.93-1.12.86-3.33.86-7.73V77l0-2c0-2.35-.4-3.84-1.19-4.48S437.15,69.58,434.22,69.58Z" transform="translate(-6.73 -4.83)"/><path class="cls-3" d="M451.48,89.07V67.77h10.15c2.28,0,3.9.45,4.83,1.36s1.41,2.47,1.41,4.71A7.91,7.91,0,0,1,467.1,78a4,4,0,0,1-2.91,1.51v.05q3.38.24,3.38,4.12v5.44h-2.4v-4.9c0-2.48-1.08-3.73-3.23-3.73h-8.06v8.63Zm2.4-10.66h6.95a6.16,6.16,0,0,0,3.75-.83,4,4,0,0,0,1-3.15c0-1.92-.24-3.18-.74-3.76s-1.55-.87-3.17-.87h-7.78Z" transform="translate(-6.73 -4.83)"/><path class="cls-3" d="M484.26,70V89.07h-2.4V70h-6.95V67.77h16.23V70Z" transform="translate(-6.73 -4.83)"/><path class="cls-3" d="M516,67.77v21.3h-2.41V79.19H501.12v9.88h-2.41V67.77h2.41v9.39h12.45V67.77Z" transform="translate(-6.73 -4.83)"/></svg>